<svg width="151" height="28" viewBox="0 0 151 28" fill="none" xmlns="http://www.w3.org/2000/svg">
<path d="M2.98023e-08 21V1.16H5.32L6.08 3.8C6.53333 3.05333 7.28 2.33333 8.32 1.64C9.36 0.946665 10.6133 0.599998 12.08 0.599998C13.6533 0.599998 14.9067 0.879998 15.84 1.44C16.8 2 17.5067 2.82667 17.96 3.92C18.7333 2.82667 19.7067 2 20.88 1.44C22.08 0.879998 23.3733 0.599998 24.76 0.599998C27.2933 0.599998 29.04 1.32 30 2.76C30.96 4.17333 31.44 6.22667 31.44 8.92V21H25.36V10.44C25.36 9.50667 25.3067 8.65333 25.2 7.88C25.0933 7.10667 24.8267 6.49333 24.4 6.04C23.9733 5.56 23.2667 5.32 22.28 5.32C21.0533 5.32 20.16 5.76 19.6 6.64C19.04 7.49333 18.76 8.78667 18.76 10.52V21H12.64V10.44C12.64 9.50667 12.5867 8.65333 12.48 7.88C12.4 7.10667 12.1467 6.49333 11.72 6.04C11.32 5.56 10.64 5.32 9.68 5.32C8.42667 5.32 7.50667 5.77333 6.92 6.68C6.36 7.58667 6.08 8.90667 6.08 10.64V21H2.98023e-08ZM44.9572 21.48C42.8239 21.48 40.9305 21.0667 39.2772 20.24C37.6505 19.3867 36.3705 18.1733 35.4372 16.6C34.5305 15.0267 34.0772 13.1467 34.0772 10.96C34.0772 8.85333 34.5572 7.02667 35.5172 5.48C36.5039 3.93333 37.7972 2.73333 39.3972 1.88C41.0239 1.02667 42.7972 0.599998 44.7172 0.599998C46.9039 0.599998 48.7705 1.12 50.3172 2.16C51.8905 3.17333 53.0772 4.58667 53.8772 6.4C54.6772 8.18667 55.0105 10.2533 54.8772 12.6H40.1972C40.3039 13.9867 40.8105 15.0267 41.7172 15.72C42.6505 16.4133 43.6772 16.76 44.7972 16.76C45.7305 16.76 46.5305 16.6267 47.1972 16.36C47.8905 16.0667 48.4239 15.7067 48.7972 15.28L53.6372 17.04C52.5972 18.56 51.2905 19.68 49.7172 20.4C48.1705 21.12 46.5839 21.48 44.9572 21.48ZM40.1972 9H49.2372C49.2105 7.72 48.7705 6.76 47.9172 6.12C47.0639 5.45333 46.0505 5.12 44.8772 5.12C43.7305 5.12 42.7039 5.42667 41.7972 6.04C40.9172 6.65333 40.3839 7.64 40.1972 9ZM57.7734 21V1.16H63.0934L63.8534 3.8C64.3068 3.05333 65.0534 2.33333 66.0934 1.64C67.1334 0.946665 68.3868 0.599998 69.8534 0.599998C71.4268 0.599998 72.6801 0.879998 73.6134 1.44C74.5734 2 75.2801 2.82667 75.7334 3.92C76.5068 2.82667 77.4801 2 78.6534 1.44C79.8534 0.879998 81.1468 0.599998 82.5334 0.599998C85.0668 0.599998 86.8134 1.32 87.7734 2.76C88.7334 4.17333 89.2134 6.22667 89.2134 8.92V21H83.1334V10.44C83.1334 9.50667 83.0801 8.65333 82.9734 7.88C82.8668 7.10667 82.6001 6.49333 82.1734 6.04C81.7468 5.56 81.0401 5.32 80.0534 5.32C78.8268 5.32 77.9334 5.76 77.3734 6.64C76.8134 7.49333 76.5334 8.78667 76.5334 10.52V21H70.4134V10.44C70.4134 9.50667 70.3601 8.65333 70.2534 7.88C70.1734 7.10667 69.9201 6.49333 69.4934 6.04C69.0934 5.56 68.4134 5.32 67.4534 5.32C66.2001 5.32 65.2801 5.77333 64.6934 6.68C64.1334 7.58667 63.8534 8.90667 63.8534 10.64V21H57.7734ZM102.371 21.48C100.531 21.48 98.8106 21.1067 97.2106 20.36C95.6106 19.6133 94.3173 18.4667 93.3306 16.92C92.344 15.3467 91.8506 13.3733 91.8506 11C91.8506 8.6 92.344 6.64 93.3306 5.12C94.3173 3.57333 95.6106 2.44 97.2106 1.72C98.8106 0.973332 100.531 0.599998 102.371 0.599998C104.184 0.599998 105.891 0.973332 107.491 1.72C109.091 2.44 110.384 3.57333 111.371 5.12C112.357 6.64 112.851 8.6 112.851 11C112.851 13.3733 112.357 15.3467 111.371 16.92C110.384 18.4667 109.091 19.6133 107.491 20.36C105.891 21.1067 104.184 21.48 102.371 21.48ZM102.371 16.76C103.597 16.76 104.611 16.32 105.411 15.44C106.237 14.56 106.651 13.08 106.651 11C106.651 8.89333 106.224 7.42667 105.371 6.6C104.544 5.74667 103.544 5.32 102.371 5.32C101.171 5.32 100.144 5.74667 99.2906 6.6C98.464 7.42667 98.0506 8.89333 98.0506 11C98.0506 13.08 98.464 14.56 99.2906 15.44C100.117 16.32 101.144 16.76 102.371 16.76ZM115.82 21V1.16H120.62L121.7 4.8C122.314 3.2 123.154 2.08 124.22 1.44C125.287 0.799999 126.58 0.519999 128.1 0.599998V6.68C127.78 6.62667 127.5 6.6 127.26 6.6C127.02 6.57333 126.754 6.56 126.46 6.56C124.994 6.56 123.86 6.90667 123.06 7.6C122.287 8.29333 121.9 9.42667 121.9 11V21H115.82ZM132.358 27.44V23.04H133.558C134.464 23.04 135.144 23 135.598 22.92C136.051 22.84 136.398 22.64 136.638 22.32C136.904 22.0267 137.144 21.5467 137.358 20.88L129.758 1.16H136.278L140.158 13.56L143.958 1.16H150.478L142.878 21C142.238 22.68 141.584 23.9867 140.918 24.92C140.278 25.8533 139.451 26.5067 138.438 26.88C137.424 27.2533 136.051 27.44 134.318 27.44H132.358Z" fill="#152938"/>
</svg>
